<svg height="512" viewBox="0 0 64 64" width="512" xmlns="http://www.w3.org/2000/svg"><g id="Icons" fill="none" fill-rule="evenodd"><g id="Social-Media-Collection" fill="#92ba43" transform="translate(-581 -402)"><g id="Shopify" transform="translate(581 402)"><path id="Fill-257" d="m31.4226 17.2856c-.172-.118-.352-.178-.53-.178-2.964 0-4.628 3.892-5.33 6.278.79-.244 1.646-.508 2.52-.78.6-3.13 2.018-4.698 3.34-5.32"/><path id="Fill-258" d="m29.3476 22.2142c1.094-.338 2.184-.676 3.19-.988v-.178c0-1.232-.164-2.144-.418-2.78-1.006.432-2.158 1.576-2.772 3.946"/><path id="Fill-259" d="m23.8558 32.8372c0 3.55 3.542 3.646 3.542 5.808 0 .522-.368 1.238-1.276 1.238-1.39 0-3.038-1.414-3.038-1.414l-.838 2.77s1.602 1.95 4.734 1.95c2.612 0 4.548-1.966 4.548-5.018 0-3.88-4.318-4.514-4.318-6.172 0-.302.096-1.508 2.016-1.508 1.31 0 2.378.57 2.378.57l1.22-3.626s-.824-.478-2.494-.478c-4.328 0-6.474 2.892-6.474 5.88"/><path id="Fill-260" d="m33.2514 18.0652c.228.652.368 1.472.368 2.494v.332c.564-.174 1.086-.336 1.544-.478-.392-1.194-1-2.234-1.912-2.348"/><path id="Fill-261" d="m36.18 48-18.25-3.42s2.342-18.112 2.43-18.75c.118-.844.146-.872 1.042-1.154.144-.046 1.284-.398 2.888-.896.618-2.62 2.59-7.78 6.716-7.78.54 0 1.164.29 1.668.956.05-.002.1-.006.15-.006 1.77 0 2.778 1.51 3.348 3.152.584-.18.936-.29.956-.296.142-.042.508-.098.696.09s1.896 1.882 1.896 1.882 2.46.184 2.576.192c.116.01.258.1.28.26.022.162 3.492 23.63 3.492 23.63zm-4.18-48c-17.674 0-32 14.326-32 32s14.326 32 32 32c17.672 0 32-14.326 32-32s-14.328-32-32-32z"/></g></g></g></svg>